<mxfile host="65bd71144e">
    <diagram id="zEb2gmHbhL5gz8jbEp-F" name="Page-1">
        <mxGraphModel dx="1374" dy="937" grid="1" gridSize="10" guides="1" tooltips="1" connect="1" arrows="1" fold="1" page="1" pageScale="1" pageWidth="850" pageHeight="1100" math="0" shadow="0">
            <root>
                <mxCell id="0"/>
                <mxCell id="1" parent="0"/>
                <mxCell id="2" value="App" style="rounded=0;whiteSpace=wrap;html=1;verticalAlign=top;fontSize=20;" vertex="1" parent="1">
                    <mxGeometry x="50" y="50" width="1160" height="950" as="geometry"/>
                </mxCell>
                <mxCell id="3" value="GameControl" style="rounded=0;whiteSpace=wrap;html=1;fontSize=20;verticalAlign=top;" vertex="1" parent="1">
                    <mxGeometry x="60" y="90" width="1120" height="910" as="geometry"/>
                </mxCell>
                <mxCell id="4" value="Start.js" style="rounded=0;whiteSpace=wrap;html=1;fontSize=20;verticalAlign=top;" vertex="1" parent="1">
                    <mxGeometry x="135" y="140" width="290" height="320" as="geometry"/>
                </mxCell>
                <mxCell id="6" value="Map" style="rounded=0;whiteSpace=wrap;html=1;fontSize=20;verticalAlign=top;" vertex="1" parent="1">
                    <mxGeometry x="810" y="130" width="300" height="140" as="geometry"/>
                </mxCell>
                <mxCell id="7" value="Results" style="rounded=0;whiteSpace=wrap;html=1;fontSize=20;verticalAlign=top;" vertex="1" parent="1">
                    <mxGeometry x="550" y="515" width="120" height="60" as="geometry"/>
                </mxCell>
                <mxCell id="8" value="Shop" style="rounded=0;whiteSpace=wrap;html=1;fontSize=20;verticalAlign=top;" vertex="1" parent="1">
                    <mxGeometry x="810" y="285" width="300" height="145" as="geometry"/>
                </mxCell>
                <mxCell id="17" value="" style="endArrow=classic;startArrow=classic;html=1;fontSize=20;exitX=1;exitY=0.5;exitDx=0;exitDy=0;entryX=0;entryY=0.25;entryDx=0;entryDy=0;" edge="1" parent="1" source="4" target="5">
                    <mxGeometry width="50" height="50" relative="1" as="geometry">
                        <mxPoint x="430" y="570" as="sourcePoint"/>
                        <mxPoint x="480" y="520" as="targetPoint"/>
                    </mxGeometry>
                </mxCell>
                <mxCell id="23" value="" style="group" vertex="1" connectable="0" parent="1">
                    <mxGeometry x="460" y="130" width="300" height="330" as="geometry"/>
                </mxCell>
                <mxCell id="5" value="Battle" style="rounded=0;whiteSpace=wrap;html=1;fontSize=20;verticalAlign=top;" vertex="1" parent="23">
                    <mxGeometry width="300" height="330" as="geometry"/>
                </mxCell>
                <mxCell id="9" value="Header" style="rounded=0;whiteSpace=wrap;html=1;fontSize=20;verticalAlign=top;" vertex="1" parent="23">
                    <mxGeometry x="10" y="30" width="280" height="60" as="geometry"/>
                </mxCell>
                <mxCell id="12" value="Field" style="rounded=0;whiteSpace=wrap;html=1;fontSize=20;verticalAlign=top;" vertex="1" parent="23">
                    <mxGeometry x="10" y="100" width="280" height="220" as="geometry"/>
                </mxCell>
                <mxCell id="14" value="Monster" style="rounded=0;whiteSpace=wrap;html=1;fontSize=20;verticalAlign=top;" vertex="1" parent="23">
                    <mxGeometry x="160" y="135" width="120" height="105" as="geometry"/>
                </mxCell>
                <mxCell id="19" value="Deck" style="rounded=0;whiteSpace=wrap;html=1;fontSize=20;verticalAlign=top;" vertex="1" parent="23">
                    <mxGeometry x="20" y="250" width="260" height="55" as="geometry"/>
                </mxCell>
                <mxCell id="20" value="Char" style="rounded=0;whiteSpace=wrap;html=1;fontSize=20;verticalAlign=top;" vertex="1" parent="23">
                    <mxGeometry x="20" y="135" width="120" height="105" as="geometry"/>
                </mxCell>
                <mxCell id="11" value="" style="endArrow=classic;startArrow=classic;html=1;fontSize=20;exitX=0.5;exitY=0;exitDx=0;exitDy=0;entryX=0.5;entryY=1;entryDx=0;entryDy=0;" edge="1" parent="1" source="7" target="12">
                    <mxGeometry width="50" height="50" relative="1" as="geometry">
                        <mxPoint x="505" y="760" as="sourcePoint"/>
                        <mxPoint x="555" y="710" as="targetPoint"/>
                    </mxGeometry>
                </mxCell>
            </root>
        </mxGraphModel>
    </diagram>
</mxfile>